# xmcd
#
# Track frame offsets:
#	150
#	13929
#	30873
#	46339
#	70516
#	86779
#	99838
#	113456
#	136440
#	158877
#	176405
#	185611
#	208084
#	225793
#	243634
#	259562
#	268814
#	299221
#
# Disc length: 4314 seconds
#
# Revision: 1
# Processed by: cddbd v1.5.2PL0 Copyright (c) Steve Scherf et al.
# Submitted via: audiograbber 1.83.01
#
DISCID=f310d812
DTITLE=Various Artist - Solid Kult Volume 1
DYEAR=1900
DGENRE=
TTITLE0=The Bonzo Dog Doo Dah Band - The Intro and the Outro
TTITLE1=Jethri Tull - Bouree
TTITLE2=Elkin and Nelson - Jibaro (Aperitivo)
TTITLE3=The B-52's - Love Shack
TTITLE4=Adam and The Ants - Antmusic
TTITLE5=THe Jam - Town Called Malice
TTITLE6=Plastic Bertrand - Ca Plane Pur Moi
TTITLE7=Patti Smith - People have the Power
TTITLE8=Fischer-Z - So Long
TTITLE9=Laid Back - White Horse
TTITLE10=Dave Brubeck - Unsquare Dance
TTITLE11=The Waterboys - THe Whole of the Moon
TTITLE12=Thunderclap Newman - Something in the Air
TTITLE13=BRan Van 3000 - Drinking in L.A.
TTITLE14=Strech - Why did you do it?
TTITLE15=Moondog - Bird's Lament
TTITLE16=Thim Buckley - Sweet Surrender
TTITLE17=Julen Cruise - Falling
EXTD=
EXTT0=
EXTT1=
EXTT2=
EXTT3=
EXTT4=
EXTT5=
EXTT6=
EXTT7=
EXTT8=
EXTT9=
EXTT10=
EXTT11=
EXTT12=
EXTT13=
EXTT14=
EXTT15=
EXTT16=
EXTT17=
PLAYORDER=
